<?xml version="1.0" encoding="UTF-8" standalone="no"?>
<!DOCTYPE svg PUBLIC "-//W3C//DTD SVG 1.1//EN"
 "http://www.w3.org/Graphics/SVG/1.1/DTD/svg11.dtd">
<!-- Generated by graphviz version 2.40.1 (20161225.0304)
 -->
<!-- Title: G Pages: 1 -->
<svg width="767pt" height="607pt"
 viewBox="0.00 0.00 767.35 607.47" xmlns="http://www.w3.org/2000/svg" xmlns:xlink="http://www.w3.org/1999/xlink">
<g id="graph0" class="graph" transform="scale(1 1) rotate(0) translate(4 603.4701)">
<title>G</title>
<polygon fill="#ffffff" stroke="transparent" points="-4,4 -4,-603.4701 763.3501,-603.4701 763.3501,4 -4,4"/>
<g id="clust1" class="cluster">
<title>cluster_G</title>
<path fill="#808080" fill-opacity="0.094118" stroke="#000000" d="M39.3501,-8C39.3501,-8 739.3501,-8 739.3501,-8 745.3501,-8 751.3501,-14 751.3501,-20 751.3501,-20 751.3501,-579.4701 751.3501,-579.4701 751.3501,-585.4701 745.3501,-591.4701 739.3501,-591.4701 739.3501,-591.4701 39.3501,-591.4701 39.3501,-591.4701 33.3501,-591.4701 27.3501,-585.4701 27.3501,-579.4701 27.3501,-579.4701 27.3501,-20 27.3501,-20 27.3501,-14 33.3501,-8 39.3501,-8"/>
</g>
<g id="clust2" class="cluster">
<title>cluster_construct_call_graphX_p3</title>
<path fill="#808080" fill-opacity="0.094118" stroke="#000000" d="M79.3501,-60C79.3501,-60 679.3501,-60 679.3501,-60 685.3501,-60 691.3501,-66 691.3501,-72 691.3501,-72 691.3501,-571.4701 691.3501,-571.4701 691.3501,-577.4701 685.3501,-583.4701 679.3501,-583.4701 679.3501,-583.4701 79.3501,-583.4701 79.3501,-583.4701 73.3501,-583.4701 67.3501,-577.4701 67.3501,-571.4701 67.3501,-571.4701 67.3501,-72 67.3501,-72 67.3501,-66 73.3501,-60 79.3501,-60"/>
<text text-anchor="middle" x="379.3501" y="-66.8" font-family="Times,serif" font-size="14.00" fill="#000000">construct_call_graph_p3</text>
</g>
<!-- construct_call_graphX_p3 -->
<g id="node1" class="node">
<title>construct_call_graphX_p3</title>
<ellipse fill="#ffffff" fill-opacity="0.698039" stroke="#000000" cx="372.3501" cy="-34" rx="97.5621" ry="18"/>
<text text-anchor="middle" x="372.3501" y="-29.8" font-family="Times,serif" font-size="14.00" fill="#000000">construct_call_graph_p3</text>
</g>
<!-- construct_call_graphX_p3__annotate_ast_list -->
<g id="node2" class="node">
<title>construct_call_graphX_p3__annotate_ast_list</title>
<ellipse fill="#fecccc" fill-opacity="0.698039" stroke="#000000" cx="524.3501" cy="-115.4558" rx="140.5904" ry="25.4118"/>
<text text-anchor="middle" x="524.3501" y="-118.2558" font-family="Times,serif" font-size="14.00" fill="#000000">annotate_ast_list</text>
<text text-anchor="middle" x="524.3501" y="-104.2558" font-family="Times,serif" font-size="14.00" fill="#000000">(construct_call_graph_p3.py:34)</text>
</g>
<!-- construct_call_graphX_p3&#45;&gt;construct_call_graphX_p3__annotate_ast_list -->
<g id="edge6" class="edge">
<title>construct_call_graphX_p3&#45;&gt;construct_call_graphX_p3__annotate_ast_list</title>
<path fill="none" stroke="#838b8b" stroke-dasharray="5,2" d="M404.2142,-51.0758C423.3422,-61.3263 448.1782,-74.6358 470.3002,-86.4909"/>
<polygon fill="#838b8b" stroke="#838b8b" points="468.8,-89.6578 479.2673,-91.2963 472.1064,-83.4879 468.8,-89.6578"/>
</g>
<!-- construct_call_graphX_p3__construct_call_graphX -->
<g id="node3" class="node">
<title>construct_call_graphX_p3__construct_call_graphX</title>
<ellipse fill="#fecccc" fill-opacity="0.698039" stroke="#000000" cx="220.3501" cy="-202.3675" rx="140.5904" ry="25.4118"/>
<text text-anchor="middle" x="220.3501" y="-205.1675" font-family="Times,serif" font-size="14.00" fill="#000000">construct_call_graph</text>
<text text-anchor="middle" x="220.3501" y="-191.1675" font-family="Times,serif" font-size="14.00" fill="#000000">(construct_call_graph_p3.py:94)</text>
</g>
<!-- construct_call_graphX_p3&#45;&gt;construct_call_graphX_p3__construct_call_graphX -->
<g id="edge7" class="edge">
<title>construct_call_graphX_p3&#45;&gt;construct_call_graphX_p3__construct_call_graphX</title>
<path fill="none" stroke="#838b8b" stroke-dasharray="5,2" d="M467.0046,-38.5857C558.5867,-43.4944 684.6989,-51.702 692.3501,-60 716.7268,-86.4377 716.3465,-114.1284 692.3501,-140.9117 643.5669,-195.3602 437.7229,-166.5859 365.3501,-176.9117 353.6873,-178.5757 341.5235,-180.4657 329.4173,-182.4464"/>
<polygon fill="#838b8b" stroke="#838b8b" points="328.5665,-179.0397 319.2739,-184.1286 329.7118,-185.9453 328.5665,-179.0397"/>
</g>
<!-- construct_call_graphX_p3__find_fn_call -->
<g id="node4" class="node">
<title>construct_call_graphX_p3__find_fn_call</title>
<ellipse fill="#fecccc" fill-opacity="0.698039" stroke="#000000" cx="218.3501" cy="-376.1909" rx="140.5904" ry="25.4118"/>
<text text-anchor="middle" x="218.3501" y="-378.9909" font-family="Times,serif" font-size="14.00" fill="#000000">find_fn_call</text>
<text text-anchor="middle" x="218.3501" y="-364.9909" font-family="Times,serif" font-size="14.00" fill="#000000">(construct_call_graph_p3.py:73)</text>
</g>
<!-- construct_call_graphX_p3&#45;&gt;construct_call_graphX_p3__find_fn_call -->
<g id="edge2" class="edge">
<title>construct_call_graphX_p3&#45;&gt;construct_call_graphX_p3__find_fn_call</title>
<path fill="none" stroke="#838b8b" stroke-dasharray="5,2" d="M277.5079,-38.4682C184.3953,-43.3276 55.1612,-51.539 47.3501,-60 -29.7076,-143.4685 -4.2303,-227.3453 68.3501,-314.7351 82.0874,-331.2754 100.9851,-343.4167 120.7395,-352.3116"/>
<polygon fill="#838b8b" stroke="#838b8b" points="119.5987,-355.6292 130.1724,-356.298 122.3237,-349.1813 119.5987,-355.6292"/>
</g>
<!-- construct_call_graphX_p3__generate_dot_code -->
<g id="node5" class="node">
<title>construct_call_graphX_p3__generate_dot_code</title>
<ellipse fill="#fecccc" fill-opacity="0.698039" stroke="#000000" cx="220.3501" cy="-115.4558" rx="145.2646" ry="25.4118"/>
<text text-anchor="middle" x="220.3501" y="-118.2558" font-family="Times,serif" font-size="14.00" fill="#000000">generate_dot_code</text>
<text text-anchor="middle" x="220.3501" y="-104.2558" font-family="Times,serif" font-size="14.00" fill="#000000">(construct_call_graph_p3.py:119)</text>
</g>
<!-- construct_call_graphX_p3&#45;&gt;construct_call_graphX_p3__generate_dot_code -->
<g id="edge5" class="edge">
<title>construct_call_graphX_p3&#45;&gt;construct_call_graphX_p3__generate_dot_code</title>
<path fill="none" stroke="#838b8b" stroke-dasharray="5,2" d="M335.653,-50.6804C315.5946,-60.8213 290.5727,-74.0612 268.9355,-85.9263"/>
<polygon fill="#838b8b" stroke="#838b8b" points="266.9593,-83.0192 259.8939,-90.9141 270.3406,-89.1484 266.9593,-83.0192"/>
</g>
<!-- construct_call_graphX_p3&#45;&gt;construct_call_graphX_p3__generate_dot_code -->
<g id="edge8" class="edge">
<title>construct_call_graphX_p3&#45;&gt;construct_call_graphX_p3__generate_dot_code</title>
<path fill="none" stroke="#000000" d="M345.3996,-51.4743C327.3221,-61.7459 302.8921,-74.9849 280.3927,-86.7527"/>
<polygon fill="#000000" stroke="#000000" points="278.4812,-83.8018 271.2246,-91.5213 281.7113,-90.0119 278.4812,-83.8018"/>
</g>
<!-- construct_call_graphX_p3__get_atom_name -->
<g id="node6" class="node">
<title>construct_call_graphX_p3__get_atom_name</title>
<ellipse fill="#fecccc" fill-opacity="0.698039" stroke="#000000" cx="542.3501" cy="-550.0143" rx="140.5904" ry="25.4118"/>
<text text-anchor="middle" x="542.3501" y="-552.8143" font-family="Times,serif" font-size="14.00" fill="#000000">get_atom_name</text>
<text text-anchor="middle" x="542.3501" y="-538.8143" font-family="Times,serif" font-size="14.00" fill="#000000">(construct_call_graph_p3.py:49)</text>
</g>
<!-- construct_call_graphX_p3&#45;&gt;construct_call_graphX_p3__get_atom_name -->
<g id="edge1" class="edge">
<title>construct_call_graphX_p3&#45;&gt;construct_call_graphX_p3__get_atom_name</title>
<path fill="none" stroke="#838b8b" stroke-dasharray="5,2" d="M467.6644,-38.1125C568.4046,-42.9014 714.0974,-51.2754 723.3501,-60 769.7945,-103.7936 742.3501,-138.5321 742.3501,-202.3675 742.3501,-202.3675 742.3501,-202.3675 742.3501,-376.1909 742.3501,-430.853 731.5739,-450.487 692.3501,-488.5584 675.9903,-504.4375 654.9635,-516.4209 633.8616,-525.3842"/>
<polygon fill="#838b8b" stroke="#838b8b" points="632.4625,-522.1745 624.5035,-529.1678 635.0863,-528.6642 632.4625,-522.1745"/>
</g>
<!-- construct_call_graphX_p3__get_fn_call_data -->
<g id="node7" class="node">
<title>construct_call_graphX_p3__get_fn_call_data</title>
<ellipse fill="#fecccc" fill-opacity="0.698039" stroke="#000000" cx="542.3501" cy="-463.1026" rx="140.5904" ry="25.4118"/>
<text text-anchor="middle" x="542.3501" y="-465.9026" font-family="Times,serif" font-size="14.00" fill="#000000">get_fn_call_data</text>
<text text-anchor="middle" x="542.3501" y="-451.9026" font-family="Times,serif" font-size="14.00" fill="#000000">(construct_call_graph_p3.py:56)</text>
</g>
<!-- construct_call_graphX_p3&#45;&gt;construct_call_graphX_p3__get_fn_call_data -->
<g id="edge4" class="edge">
<title>construct_call_graphX_p3&#45;&gt;construct_call_graphX_p3__get_fn_call_data</title>
<path fill="none" stroke="#838b8b" stroke-dasharray="5,2" d="M469.6753,-35.374C562.1477,-37.6617 689.542,-43.7576 706.3501,-60 752.1374,-104.2464 722.3501,-138.6947 722.3501,-202.3675 722.3501,-202.3675 722.3501,-202.3675 722.3501,-289.2792 722.3501,-356.6287 656.3368,-406.1538 604.2644,-434.7432"/>
<polygon fill="#838b8b" stroke="#838b8b" points="602.5494,-431.6913 595.3824,-439.4943 605.8511,-437.8637 602.5494,-431.6913"/>
</g>
<!-- construct_call_graphX_p3__process_fn -->
<g id="node8" class="node">
<title>construct_call_graphX_p3__process_fn</title>
<ellipse fill="#fecccc" fill-opacity="0.698039" stroke="#000000" cx="218.3501" cy="-289.2792" rx="140.5904" ry="25.4118"/>
<text text-anchor="middle" x="218.3501" y="-292.0792" font-family="Times,serif" font-size="14.00" fill="#000000">process_fn</text>
<text text-anchor="middle" x="218.3501" y="-278.0792" font-family="Times,serif" font-size="14.00" fill="#000000">(construct_call_graph_p3.py:84)</text>
</g>
<!-- construct_call_graphX_p3&#45;&gt;construct_call_graphX_p3__process_fn -->
<g id="edge3" class="edge">
<title>construct_call_graphX_p3&#45;&gt;construct_call_graphX_p3__process_fn</title>
<path fill="none" stroke="#838b8b" stroke-dasharray="5,2" d="M275.1918,-35.7927C190.9693,-38.382 80.4171,-44.6871 66.3501,-60 41.113,-87.4723 48.9304,-197.281 70.3501,-227.8234 82.0877,-244.5601 99.2796,-256.752 117.828,-265.6293"/>
<polygon fill="#838b8b" stroke="#838b8b" points="116.4657,-268.8539 127.0245,-269.7263 119.3143,-262.4597 116.4657,-268.8539"/>
</g>
<!-- construct_call_graphX_p3__annotate_ast_list&#45;&gt;construct_call_graphX_p3__annotate_ast_list -->
<g id="edge9" class="edge">
<title>construct_call_graphX_p3__annotate_ast_list&#45;&gt;construct_call_graphX_p3__annotate_ast_list</title>
<path fill="none" stroke="#000000" d="M639.9679,-100.899C664.9951,-102.3223 683.1451,-107.1746 683.1451,-115.4558 683.1451,-122.5725 669.7408,-127.1569 650.0869,-129.2088"/>
<polygon fill="#000000" stroke="#000000" points="649.6592,-125.7317 639.9679,-130.0127 650.2137,-132.7097 649.6592,-125.7317"/>
</g>
<!-- construct_call_graphX_p3__construct_call_graphX&#45;&gt;construct_call_graphX_p3__construct_call_graphX -->
<g id="edge15" class="edge">
<title>construct_call_graphX_p3__construct_call_graphX&#45;&gt;construct_call_graphX_p3__construct_call_graphX</title>
<path fill="none" stroke="#000000" d="M330.1887,-186.4354C358.1521,-187.4826 379.1451,-192.7933 379.1451,-202.3675 379.1451,-210.745 363.0723,-215.8582 340.3208,-217.7071"/>
<polygon fill="#000000" stroke="#000000" points="339.9672,-214.2217 330.1887,-218.2996 340.376,-221.2097 339.9672,-214.2217"/>
</g>
<!-- construct_call_graphX_p3__construct_call_graphX&#45;&gt;construct_call_graphX_p3__process_fn -->
<g id="edge14" class="edge">
<title>construct_call_graphX_p3__construct_call_graphX&#45;&gt;construct_call_graphX_p3__process_fn</title>
<path fill="none" stroke="#000000" d="M219.7608,-227.9738C219.5773,-235.9478 219.3715,-244.8922 219.175,-253.432"/>
<polygon fill="#000000" stroke="#000000" points="215.6731,-253.4777 218.942,-263.5556 222.6712,-253.6388 215.6731,-253.4777"/>
</g>
<!-- construct_call_graphX_p3__find_fn_call&#45;&gt;construct_call_graphX_p3__find_fn_call -->
<g id="edge11" class="edge">
<title>construct_call_graphX_p3__find_fn_call&#45;&gt;construct_call_graphX_p3__find_fn_call</title>
<path fill="none" stroke="#000000" d="M328.1887,-360.2588C356.1521,-361.306 377.1451,-366.6167 377.1451,-376.1909 377.1451,-384.5684 361.0723,-389.6815 338.3208,-391.5305"/>
<polygon fill="#000000" stroke="#000000" points="337.9672,-388.0451 328.1887,-392.123 338.376,-395.0331 337.9672,-388.0451"/>
</g>
<!-- construct_call_graphX_p3__find_fn_call&#45;&gt;construct_call_graphX_p3__get_fn_call_data -->
<g id="edge12" class="edge">
<title>construct_call_graphX_p3__find_fn_call&#45;&gt;construct_call_graphX_p3__get_fn_call_data</title>
<path fill="none" stroke="#000000" d="M297.1951,-397.3408C344.4226,-410.0094 404.5862,-426.148 453.4928,-439.267"/>
<polygon fill="#000000" stroke="#000000" points="452.8673,-442.7229 463.4327,-441.9333 454.681,-435.9619 452.8673,-442.7229"/>
</g>
<!-- construct_call_graphX_p3__generate_dot_code&#45;&gt;construct_call_graphX_p3__construct_call_graphX -->
<g id="edge16" class="edge">
<title>construct_call_graphX_p3__generate_dot_code&#45;&gt;construct_call_graphX_p3__construct_call_graphX</title>
<path fill="none" stroke="#000000" d="M220.3501,-141.0621C220.3501,-149.0361 220.3501,-157.9805 220.3501,-166.5203"/>
<polygon fill="#000000" stroke="#000000" points="216.8502,-166.6439 220.3501,-176.6439 223.8502,-166.644 216.8502,-166.6439"/>
</g>
<!-- construct_call_graphX_p3__get_fn_call_data&#45;&gt;construct_call_graphX_p3__get_atom_name -->
<g id="edge10" class="edge">
<title>construct_call_graphX_p3__get_fn_call_data&#45;&gt;construct_call_graphX_p3__get_atom_name</title>
<path fill="none" stroke="#000000" d="M542.3501,-488.7089C542.3501,-496.6828 542.3501,-505.6273 542.3501,-514.1671"/>
<polygon fill="#000000" stroke="#000000" points="538.8502,-514.2906 542.3501,-524.2907 545.8502,-514.2907 538.8502,-514.2906"/>
</g>
<!-- construct_call_graphX_p3__process_fn&#45;&gt;construct_call_graphX_p3__find_fn_call -->
<g id="edge13" class="edge">
<title>construct_call_graphX_p3__process_fn&#45;&gt;construct_call_graphX_p3__find_fn_call</title>
<path fill="none" stroke="#000000" d="M218.3501,-314.8855C218.3501,-322.8595 218.3501,-331.8039 218.3501,-340.3437"/>
<polygon fill="#000000" stroke="#000000" points="214.8502,-340.4673 218.3501,-350.4673 221.8502,-340.4673 214.8502,-340.4673"/>
</g>
</g>
</svg>
