<?xml version="1.0" encoding="UTF-8" standalone="no"?>
<!DOCTYPE svg PUBLIC "-//W3C//DTD SVG 1.1//EN"
 "http://www.w3.org/Graphics/SVG/1.1/DTD/svg11.dtd">
<!-- Generated by graphviz version 2.40.1 (20161225.0304)
 -->
<!-- Title: G Pages: 1 -->
<svg width="2158pt" height="313pt"
 viewBox="0.00 0.00 2157.78 312.96" xmlns="http://www.w3.org/2000/svg" xmlns:xlink="http://www.w3.org/1999/xlink">
<g id="graph0" class="graph" transform="scale(1 1) rotate(0) translate(4 308.9624)">
<title>G</title>
<polygon fill="#ffffff" stroke="transparent" points="-4,4 -4,-308.9624 2153.777,-308.9624 2153.777,4 -4,4"/>
<g id="clust1" class="cluster">
<title>cluster_G</title>
<path fill="#808080" fill-opacity="0.094118" stroke="#000000" d="M20,-38.3886C20,-38.3886 2129.777,-38.3886 2129.777,-38.3886 2135.777,-38.3886 2141.777,-44.3886 2141.777,-50.3886 2141.777,-50.3886 2141.777,-279.3886 2141.777,-279.3886 2141.777,-285.3886 2135.777,-291.3886 2129.777,-291.3886 2129.777,-291.3886 20,-291.3886 20,-291.3886 14,-291.3886 8,-285.3886 8,-279.3886 8,-279.3886 8,-50.3886 8,-50.3886 8,-44.3886 14,-38.3886 20,-38.3886"/>
</g>
<g id="clust2" class="cluster">
<title>cluster_construct_call_graphX_p3</title>
<path fill="#808080" fill-opacity="0.094118" stroke="#000000" d="M251.0621,-78.3886C251.0621,-78.3886 2121.777,-78.3886 2121.777,-78.3886 2127.777,-78.3886 2133.777,-84.3886 2133.777,-90.3886 2133.777,-90.3886 2133.777,-241.3886 2133.777,-241.3886 2133.777,-247.3886 2127.777,-253.3886 2121.777,-253.3886 2121.777,-253.3886 251.0621,-253.3886 251.0621,-253.3886 245.0621,-253.3886 239.0621,-247.3886 239.0621,-241.3886 239.0621,-241.3886 239.0621,-90.3886 239.0621,-90.3886 239.0621,-84.3886 245.0621,-78.3886 251.0621,-78.3886"/>
<text text-anchor="middle" x="1186.4196" y="-238.1886" font-family="Times,serif" font-size="14.00" fill="#000000">construct_call_graph_p3</text>
</g>
<!-- construct_call_graphX_p3 -->
<g id="node1" class="node">
<title>construct_call_graphX_p3</title>
<ellipse fill="#ffffff" fill-opacity="0.698039" stroke="#000000" cx="113.531" cy="-145.3886" rx="97.5621" ry="18"/>
<text text-anchor="middle" x="113.531" y="-141.1886" font-family="Times,serif" font-size="14.00" fill="#000000">construct_call_graph_p3</text>
</g>
<!-- construct_call_graphX_p3__annotate_ast_list -->
<g id="node2" class="node">
<title>construct_call_graphX_p3__annotate_ast_list</title>
<ellipse fill="#fecccc" fill-opacity="0.698039" stroke="#000000" cx="392.4444" cy="-180.3886" rx="140.5904" ry="25.4118"/>
<text text-anchor="middle" x="392.4444" y="-183.1886" font-family="Times,serif" font-size="14.00" fill="#000000">annotate_ast_list</text>
<text text-anchor="middle" x="392.4444" y="-169.1886" font-family="Times,serif" font-size="14.00" fill="#000000">(construct_call_graph_p3.py:34)</text>
</g>
<!-- construct_call_graphX_p3&#45;&gt;construct_call_graphX_p3__annotate_ast_list -->
<g id="edge5" class="edge">
<title>construct_call_graphX_p3&#45;&gt;construct_call_graphX_p3__annotate_ast_list</title>
<path fill="none" stroke="#838b8b" stroke-dasharray="5,2" d="M194.2043,-155.512C216.8289,-158.3511 241.9801,-161.5073 266.5633,-164.5921"/>
<polygon fill="#838b8b" stroke="#838b8b" points="266.3259,-168.0897 276.6839,-165.8621 267.1975,-161.1442 266.3259,-168.0897"/>
</g>
<!-- construct_call_graphX_p3__construct_call_graphX -->
<g id="node3" class="node">
<title>construct_call_graphX_p3__construct_call_graphX</title>
<ellipse fill="#fecccc" fill-opacity="0.698039" stroke="#000000" cx="714.6217" cy="-111.3886" rx="140.5904" ry="25.4118"/>
<text text-anchor="middle" x="714.6217" y="-114.1886" font-family="Times,serif" font-size="14.00" fill="#000000">construct_call_graph</text>
<text text-anchor="middle" x="714.6217" y="-100.1886" font-family="Times,serif" font-size="14.00" fill="#000000">(construct_call_graph_p3.py:94)</text>
</g>
<!-- construct_call_graphX_p3&#45;&gt;construct_call_graphX_p3__construct_call_graphX -->
<g id="edge3" class="edge">
<title>construct_call_graphX_p3&#45;&gt;construct_call_graphX_p3__construct_call_graphX</title>
<path fill="none" stroke="#838b8b" stroke-dasharray="5,2" d="M131.5454,-163.3182C154.3141,-184.5856 195.7857,-218.858 239.0621,-232.3886 302.4293,-252.2006 482.9898,-269.8163 537.8266,-232.3886 574.0925,-207.6361 540.2573,-168.6906 573.8266,-140.3886 578.3493,-136.5756 583.2414,-133.22 588.3959,-130.27"/>
<polygon fill="#838b8b" stroke="#838b8b" points="590.0155,-133.3728 597.2993,-125.6788 586.8073,-127.1513 590.0155,-133.3728"/>
</g>
<!-- construct_call_graphX_p3__find_fn_call -->
<g id="node4" class="node">
<title>construct_call_graphX_p3__find_fn_call</title>
<ellipse fill="#fecccc" fill-opacity="0.698039" stroke="#000000" cx="1349.8018" cy="-111.3886" rx="140.5904" ry="25.4118"/>
<text text-anchor="middle" x="1349.8018" y="-114.1886" font-family="Times,serif" font-size="14.00" fill="#000000">find_fn_call</text>
<text text-anchor="middle" x="1349.8018" y="-100.1886" font-family="Times,serif" font-size="14.00" fill="#000000">(construct_call_graph_p3.py:73)</text>
</g>
<!-- construct_call_graphX_p3&#45;&gt;construct_call_graphX_p3__find_fn_call -->
<g id="edge6" class="edge">
<title>construct_call_graphX_p3&#45;&gt;construct_call_graphX_p3__find_fn_call</title>
<path fill="none" stroke="#838b8b" stroke-dasharray="5,2" d="M130.6332,-127.6184C153.0955,-105.6955 194.8959,-69.5853 239.0621,-55.3886 605.6549,62.4484 1075.1683,-37.2974 1264.7653,-87.1328"/>
<polygon fill="#838b8b" stroke="#838b8b" points="1264.1084,-90.5795 1274.6714,-89.7584 1265.9019,-83.8131 1264.1084,-90.5795"/>
</g>
<!-- construct_call_graphX_p3__generate_dot_code -->
<g id="node5" class="node">
<title>construct_call_graphX_p3__generate_dot_code</title>
<ellipse fill="#fecccc" fill-opacity="0.698039" stroke="#000000" cx="392.4444" cy="-111.3886" rx="145.2646" ry="25.4118"/>
<text text-anchor="middle" x="392.4444" y="-114.1886" font-family="Times,serif" font-size="14.00" fill="#000000">generate_dot_code</text>
<text text-anchor="middle" x="392.4444" y="-100.1886" font-family="Times,serif" font-size="14.00" fill="#000000">(construct_call_graph_p3.py:119)</text>
</g>
<!-- construct_call_graphX_p3&#45;&gt;construct_call_graphX_p3__generate_dot_code -->
<g id="edge4" class="edge">
<title>construct_call_graphX_p3&#45;&gt;construct_call_graphX_p3__generate_dot_code</title>
<path fill="none" stroke="#838b8b" stroke-dasharray="5,2" d="M177.8696,-131.7547C198.8671,-128.5997 223.103,-125.3271 247.5618,-122.3046"/>
<polygon fill="#838b8b" stroke="#838b8b" points="248.1738,-125.7559 257.6762,-121.0704 247.3259,-118.8075 248.1738,-125.7559"/>
</g>
<!-- construct_call_graphX_p3&#45;&gt;construct_call_graphX_p3__generate_dot_code -->
<g id="edge8" class="edge">
<title>construct_call_graphX_p3&#45;&gt;construct_call_graphX_p3__generate_dot_code</title>
<path fill="none" stroke="#000000" d="M207.5695,-140.3463C231.755,-137.7602 257.9863,-134.6256 282.8836,-131.3544"/>
<polygon fill="#000000" stroke="#000000" points="283.6391,-134.7848 293.0897,-129.9957 282.7152,-127.846 283.6391,-134.7848"/>
</g>
<!-- construct_call_graphX_p3__get_atom_name -->
<g id="node6" class="node">
<title>construct_call_graphX_p3__get_atom_name</title>
<ellipse fill="#fecccc" fill-opacity="0.698039" stroke="#000000" cx="1984.982" cy="-198.3886" rx="140.5904" ry="25.4118"/>
<text text-anchor="middle" x="1984.982" y="-201.1886" font-family="Times,serif" font-size="14.00" fill="#000000">get_atom_name</text>
<text text-anchor="middle" x="1984.982" y="-187.1886" font-family="Times,serif" font-size="14.00" fill="#000000">(construct_call_graph_p3.py:49)</text>
</g>
<!-- construct_call_graphX_p3&#45;&gt;construct_call_graphX_p3__get_atom_name -->
<g id="edge7" class="edge">
<title>construct_call_graphX_p3&#45;&gt;construct_call_graphX_p3__get_atom_name</title>
<path fill="none" stroke="#838b8b" stroke-dasharray="5,2" d="M126.0623,-163.3723C146.2304,-190.604 188.7649,-241.3521 239.0621,-262.3886 434.2265,-344.0149 503.075,-282.3886 714.6217,-282.3886 714.6217,-282.3886 714.6217,-282.3886 1349.8018,-282.3886 1540.1417,-282.3886 1759.8176,-244.8584 1884.5703,-219.9701"/>
<polygon fill="#838b8b" stroke="#838b8b" points="1885.3794,-223.3775 1894.4944,-217.9768 1884.001,-216.5146 1885.3794,-223.3775"/>
</g>
<!-- construct_call_graphX_p3__get_fn_call_data -->
<g id="node7" class="node">
<title>construct_call_graphX_p3__get_fn_call_data</title>
<ellipse fill="#fecccc" fill-opacity="0.698039" stroke="#000000" cx="1667.3919" cy="-198.3886" rx="140.5904" ry="25.4118"/>
<text text-anchor="middle" x="1667.3919" y="-201.1886" font-family="Times,serif" font-size="14.00" fill="#000000">get_fn_call_data</text>
<text text-anchor="middle" x="1667.3919" y="-187.1886" font-family="Times,serif" font-size="14.00" fill="#000000">(construct_call_graph_p3.py:56)</text>
</g>
<!-- construct_call_graphX_p3&#45;&gt;construct_call_graphX_p3__get_fn_call_data -->
<g id="edge2" class="edge">
<title>construct_call_graphX_p3&#45;&gt;construct_call_graphX_p3__get_fn_call_data</title>
<path fill="none" stroke="#838b8b" stroke-dasharray="5,2" d="M128.7112,-163.5724C150.3101,-187.9097 192.4914,-230.0218 239.0621,-247.3886 338.1303,-284.3323 608.8892,-262.3886 714.6217,-262.3886 714.6217,-262.3886 714.6217,-262.3886 1032.2117,-262.3886 1214.85,-262.3886 1425.5467,-235.8702 1552.5032,-216.9732"/>
<polygon fill="#838b8b" stroke="#838b8b" points="1553.2603,-220.3989 1562.6311,-215.4553 1552.2228,-213.4762 1553.2603,-220.3989"/>
</g>
<!-- construct_call_graphX_p3__process_fn -->
<g id="node8" class="node">
<title>construct_call_graphX_p3__process_fn</title>
<ellipse fill="#fecccc" fill-opacity="0.698039" stroke="#000000" cx="1032.2117" cy="-111.3886" rx="140.5904" ry="25.4118"/>
<text text-anchor="middle" x="1032.2117" y="-114.1886" font-family="Times,serif" font-size="14.00" fill="#000000">process_fn</text>
<text text-anchor="middle" x="1032.2117" y="-100.1886" font-family="Times,serif" font-size="14.00" fill="#000000">(construct_call_graph_p3.py:84)</text>
</g>
<!-- construct_call_graphX_p3&#45;&gt;construct_call_graphX_p3__process_fn -->
<g id="edge1" class="edge">
<title>construct_call_graphX_p3&#45;&gt;construct_call_graphX_p3__process_fn</title>
<path fill="none" stroke="#838b8b" stroke-dasharray="5,2" d="M137.4871,-127.6689C161.6881,-110.9574 200.8607,-87.0708 239.0621,-77.3886 371.8318,-43.738 719.0666,-64.3967 855.4167,-77.3886 870.578,-78.8332 899.8164,-84.1051 930.2171,-90.0809"/>
<polygon fill="#838b8b" stroke="#838b8b" points="929.6223,-93.531 940.1119,-92.0419 930.9831,-86.6646 929.6223,-93.531"/>
</g>
<!-- construct_call_graphX_p3__annotate_ast_list&#45;&gt;construct_call_graphX_p3__annotate_ast_list -->
<g id="edge9" class="edge">
<title>construct_call_graphX_p3__annotate_ast_list&#45;&gt;construct_call_graphX_p3__annotate_ast_list</title>
<path fill="none" stroke="#000000" d="M340.9429,-204.52C336.7264,-214.9308 353.8936,-223.8444 392.4444,-223.8444 417.7433,-223.8444 433.8331,-220.0057 440.7137,-214.4242"/>
<polygon fill="#000000" stroke="#000000" points="444.1707,-215.1124 443.9458,-204.52 437.5161,-212.9408 444.1707,-215.1124"/>
</g>
<!-- construct_call_graphX_p3__construct_call_graphX&#45;&gt;construct_call_graphX_p3__construct_call_graphX -->
<g id="edge15" class="edge">
<title>construct_call_graphX_p3__construct_call_graphX&#45;&gt;construct_call_graphX_p3__construct_call_graphX</title>
<path fill="none" stroke="#000000" d="M656.5433,-134.6368C650.2075,-145.4216 669.567,-154.8444 714.6217,-154.8444 744.8928,-154.8444 763.5646,-150.5908 770.6373,-144.5284"/>
<polygon fill="#000000" stroke="#000000" points="774.0848,-145.1407 772.7,-134.6368 767.2322,-143.7117 774.0848,-145.1407"/>
</g>
<!-- construct_call_graphX_p3__construct_call_graphX&#45;&gt;construct_call_graphX_p3__process_fn -->
<g id="edge14" class="edge">
<title>construct_call_graphX_p3__construct_call_graphX&#45;&gt;construct_call_graphX_p3__process_fn</title>
<path fill="none" stroke="#000000" d="M855.7708,-111.3886C864.133,-111.3886 872.5613,-111.3886 880.9614,-111.3886"/>
<polygon fill="#000000" stroke="#000000" points="881.1873,-114.8887 891.1873,-111.3886 881.1873,-107.8887 881.1873,-114.8887"/>
</g>
<!-- construct_call_graphX_p3__find_fn_call&#45;&gt;construct_call_graphX_p3__find_fn_call -->
<g id="edge12" class="edge">
<title>construct_call_graphX_p3__find_fn_call&#45;&gt;construct_call_graphX_p3__find_fn_call</title>
<path fill="none" stroke="#000000" d="M1291.7235,-134.6368C1285.3877,-145.4216 1304.7471,-154.8444 1349.8018,-154.8444 1380.0729,-154.8444 1398.7448,-150.5908 1405.8174,-144.5284"/>
<polygon fill="#000000" stroke="#000000" points="1409.265,-145.1407 1407.8801,-134.6368 1402.4124,-143.7117 1409.265,-145.1407"/>
</g>
<!-- construct_call_graphX_p3__find_fn_call&#45;&gt;construct_call_graphX_p3__get_fn_call_data -->
<g id="edge11" class="edge">
<title>construct_call_graphX_p3__find_fn_call&#45;&gt;construct_call_graphX_p3__get_fn_call_data</title>
<path fill="none" stroke="#000000" d="M1447.087,-129.9175C1461.7319,-133.1423 1476.6087,-136.6664 1490.5969,-140.3886 1524.9695,-149.5349 1562.4807,-161.5432 1594.0716,-172.2595"/>
<polygon fill="#000000" stroke="#000000" points="1593.081,-175.6196 1603.6755,-175.5391 1595.3432,-168.9952 1593.081,-175.6196"/>
</g>
<!-- construct_call_graphX_p3__generate_dot_code&#45;&gt;construct_call_graphX_p3__construct_call_graphX -->
<g id="edge16" class="edge">
<title>construct_call_graphX_p3__generate_dot_code&#45;&gt;construct_call_graphX_p3__construct_call_graphX</title>
<path fill="none" stroke="#000000" d="M537.9806,-111.3886C546.3979,-111.3886 554.8724,-111.3886 563.3109,-111.3886"/>
<polygon fill="#000000" stroke="#000000" points="563.5801,-114.8887 573.5801,-111.3886 563.58,-107.8887 563.5801,-114.8887"/>
</g>
<!-- construct_call_graphX_p3__get_fn_call_data&#45;&gt;construct_call_graphX_p3__get_atom_name -->
<g id="edge10" class="edge">
<title>construct_call_graphX_p3__get_fn_call_data&#45;&gt;construct_call_graphX_p3__get_atom_name</title>
<path fill="none" stroke="#000000" d="M1808.5411,-198.3886C1816.9033,-198.3886 1825.3315,-198.3886 1833.7316,-198.3886"/>
<polygon fill="#000000" stroke="#000000" points="1833.9576,-201.8887 1843.9575,-198.3886 1833.9575,-194.8887 1833.9576,-201.8887"/>
</g>
<!-- construct_call_graphX_p3__process_fn&#45;&gt;construct_call_graphX_p3__find_fn_call -->
<g id="edge13" class="edge">
<title>construct_call_graphX_p3__process_fn&#45;&gt;construct_call_graphX_p3__find_fn_call</title>
<path fill="none" stroke="#000000" d="M1173.3609,-111.3886C1181.7231,-111.3886 1190.1514,-111.3886 1198.5515,-111.3886"/>
<polygon fill="#000000" stroke="#000000" points="1198.7774,-114.8887 1208.7774,-111.3886 1198.7773,-107.8887 1198.7774,-114.8887"/>
</g>
</g>
</svg>
