<?xml version="1.0" encoding="UTF-8" standalone="no"?>
<!DOCTYPE svg PUBLIC "-//W3C//DTD SVG 1.1//EN"
 "http://www.w3.org/Graphics/SVG/1.1/DTD/svg11.dtd">
<!-- Generated by graphviz version 2.40.1 (20161225.0304)
 -->
<!-- Title: G Pages: 1 -->
<svg width="666pt" height="607pt"
 viewBox="0.00 0.00 666.00 607.47" xmlns="http://www.w3.org/2000/svg" xmlns:xlink="http://www.w3.org/1999/xlink">
<g id="graph0" class="graph" transform="scale(1 1) rotate(0) translate(4 603.4701)">
<title>G</title>
<polygon fill="#ffffff" stroke="transparent" points="-4,4 -4,-603.4701 662,-603.4701 662,4 -4,4"/>
<g id="clust1" class="cluster">
<title>cluster_G</title>
<path fill="#808080" fill-opacity="0.094118" stroke="#000000" d="M20,-8C20,-8 638,-8 638,-8 644,-8 650,-14 650,-20 650,-20 650,-579.4701 650,-579.4701 650,-585.4701 644,-591.4701 638,-591.4701 638,-591.4701 20,-591.4701 20,-591.4701 14,-591.4701 8,-585.4701 8,-579.4701 8,-579.4701 8,-20 8,-20 8,-14 14,-8 20,-8"/>
</g>
<g id="clust2" class="cluster">
<title>cluster_construct_call_graphX_p3</title>
<path fill="#808080" fill-opacity="0.094118" stroke="#000000" d="M28,-16C28,-16 630,-16 630,-16 636,-16 642,-22 642,-28 642,-28 642,-527.4701 642,-527.4701 642,-533.4701 636,-539.4701 630,-539.4701 630,-539.4701 28,-539.4701 28,-539.4701 22,-539.4701 16,-533.4701 16,-527.4701 16,-527.4701 16,-28 16,-28 16,-22 22,-16 28,-16"/>
<text text-anchor="middle" x="329" y="-524.2701" font-family="Times,serif" font-size="14.00" fill="#000000">construct_call_graph_p3</text>
</g>
<!-- construct_call_graphX_p3 -->
<g id="node1" class="node">
<title>construct_call_graphX_p3</title>
<ellipse fill="#ffffff" fill-opacity="0.698039" stroke="#000000" cx="170" cy="-565.4701" rx="97.5621" ry="18"/>
<text text-anchor="middle" x="170" y="-561.2701" font-family="Times,serif" font-size="14.00" fill="#000000">construct_call_graph_p3</text>
</g>
<!-- construct_call_graphX_p3__generate_dot_code -->
<g id="node5" class="node">
<title>construct_call_graphX_p3__generate_dot_code</title>
<ellipse fill="#fecccc" fill-opacity="0.698039" stroke="#000000" cx="170" cy="-484.0143" rx="145.99" ry="25.4118"/>
<text text-anchor="middle" x="170" y="-486.8143" font-family="Times,serif" font-size="14.00" fill="#000000">generate_dot_code</text>
<text text-anchor="middle" x="170" y="-472.8143" font-family="Times,serif" font-size="14.00" fill="#000000">(construct_call_graph_p3.py:105)</text>
</g>
<!-- construct_call_graphX_p3&#45;&gt;construct_call_graphX_p3__generate_dot_code -->
<g id="edge1" class="edge">
<title>construct_call_graphX_p3&#45;&gt;construct_call_graphX_p3__generate_dot_code</title>
<path fill="none" stroke="#000000" d="M170,-547.3924C170,-539.2692 170,-529.3834 170,-519.859"/>
<polygon fill="#000000" stroke="#000000" points="173.5001,-519.7664 170,-509.7665 166.5001,-519.7665 173.5001,-519.7664"/>
</g>
<!-- construct_call_graphX_p3__annotate_ast_list -->
<g id="node2" class="node">
<title>construct_call_graphX_p3__annotate_ast_list</title>
<ellipse fill="#fecccc" fill-opacity="0.698039" stroke="#000000" cx="475" cy="-484.0143" rx="140.5904" ry="25.4118"/>
<text text-anchor="middle" x="475" y="-486.8143" font-family="Times,serif" font-size="14.00" fill="#000000">annotate_ast_list</text>
<text text-anchor="middle" x="475" y="-472.8143" font-family="Times,serif" font-size="14.00" fill="#000000">(construct_call_graph_p3.py:31)</text>
</g>
<!-- construct_call_graphX_p3__annotate_ast_list&#45;&gt;construct_call_graphX_p3__annotate_ast_list -->
<g id="edge2" class="edge">
<title>construct_call_graphX_p3__annotate_ast_list&#45;&gt;construct_call_graphX_p3__annotate_ast_list</title>
<path fill="none" stroke="#000000" d="M590.6178,-498.5712C615.645,-497.1478 633.795,-492.2955 633.795,-484.0143 633.795,-476.8976 620.3908,-472.3133 600.7368,-470.2613"/>
<polygon fill="#000000" stroke="#000000" points="600.8636,-466.7604 590.6178,-469.4574 600.3092,-473.7384 600.8636,-466.7604"/>
</g>
<!-- construct_call_graphX_p3__construct_call_graphX -->
<g id="node3" class="node">
<title>construct_call_graphX_p3__construct_call_graphX</title>
<ellipse fill="#fecccc" fill-opacity="0.698039" stroke="#000000" cx="170" cy="-397.1026" rx="140.5904" ry="25.4118"/>
<text text-anchor="middle" x="170" y="-399.9026" font-family="Times,serif" font-size="14.00" fill="#000000">construct_call_graph</text>
<text text-anchor="middle" x="170" y="-385.9026" font-family="Times,serif" font-size="14.00" fill="#000000">(construct_call_graph_p3.py:91)</text>
</g>
<!-- construct_call_graphX_p3__construct_call_graphX&#45;&gt;construct_call_graphX_p3__construct_call_graphX -->
<g id="edge8" class="edge">
<title>construct_call_graphX_p3__construct_call_graphX&#45;&gt;construct_call_graphX_p3__construct_call_graphX</title>
<path fill="none" stroke="#000000" d="M279.8386,-413.0347C307.802,-411.9875 328.795,-406.6768 328.795,-397.1026 328.795,-388.7252 312.7222,-383.612 289.9708,-381.763"/>
<polygon fill="#000000" stroke="#000000" points="290.0259,-378.2604 279.8386,-381.1705 289.6172,-385.2484 290.0259,-378.2604"/>
</g>
<!-- construct_call_graphX_p3__process_fn -->
<g id="node8" class="node">
<title>construct_call_graphX_p3__process_fn</title>
<ellipse fill="#fecccc" fill-opacity="0.698039" stroke="#000000" cx="170" cy="-310.1909" rx="140.5904" ry="25.4118"/>
<text text-anchor="middle" x="170" y="-312.9909" font-family="Times,serif" font-size="14.00" fill="#000000">process_fn</text>
<text text-anchor="middle" x="170" y="-298.9909" font-family="Times,serif" font-size="14.00" fill="#000000">(construct_call_graph_p3.py:81)</text>
</g>
<!-- construct_call_graphX_p3__construct_call_graphX&#45;&gt;construct_call_graphX_p3__process_fn -->
<g id="edge7" class="edge">
<title>construct_call_graphX_p3__construct_call_graphX&#45;&gt;construct_call_graphX_p3__process_fn</title>
<path fill="none" stroke="#000000" d="M170,-371.4963C170,-363.5224 170,-354.5779 170,-346.0381"/>
<polygon fill="#000000" stroke="#000000" points="173.5001,-345.9145 170,-335.9145 166.5001,-345.9146 173.5001,-345.9145"/>
</g>
<!-- construct_call_graphX_p3__find_fn_call -->
<g id="node4" class="node">
<title>construct_call_graphX_p3__find_fn_call</title>
<ellipse fill="#fecccc" fill-opacity="0.698039" stroke="#000000" cx="170" cy="-223.2792" rx="140.5904" ry="25.4118"/>
<text text-anchor="middle" x="170" y="-226.0792" font-family="Times,serif" font-size="14.00" fill="#000000">find_fn_call</text>
<text text-anchor="middle" x="170" y="-212.0792" font-family="Times,serif" font-size="14.00" fill="#000000">(construct_call_graph_p3.py:70)</text>
</g>
<!-- construct_call_graphX_p3__find_fn_call&#45;&gt;construct_call_graphX_p3__find_fn_call -->
<g id="edge5" class="edge">
<title>construct_call_graphX_p3__find_fn_call&#45;&gt;construct_call_graphX_p3__find_fn_call</title>
<path fill="none" stroke="#000000" d="M279.8386,-239.2113C307.802,-238.1641 328.795,-232.8534 328.795,-223.2792 328.795,-214.9018 312.7222,-209.7886 289.9708,-207.9397"/>
<polygon fill="#000000" stroke="#000000" points="290.0259,-204.437 279.8386,-207.3471 289.6172,-211.4251 290.0259,-204.437"/>
</g>
<!-- construct_call_graphX_p3__get_fn_call_data -->
<g id="node7" class="node">
<title>construct_call_graphX_p3__get_fn_call_data</title>
<ellipse fill="#fecccc" fill-opacity="0.698039" stroke="#000000" cx="170" cy="-136.3675" rx="140.5904" ry="25.4118"/>
<text text-anchor="middle" x="170" y="-139.1675" font-family="Times,serif" font-size="14.00" fill="#000000">get_fn_call_data</text>
<text text-anchor="middle" x="170" y="-125.1675" font-family="Times,serif" font-size="14.00" fill="#000000">(construct_call_graph_p3.py:53)</text>
</g>
<!-- construct_call_graphX_p3__find_fn_call&#45;&gt;construct_call_graphX_p3__get_fn_call_data -->
<g id="edge4" class="edge">
<title>construct_call_graphX_p3__find_fn_call&#45;&gt;construct_call_graphX_p3__get_fn_call_data</title>
<path fill="none" stroke="#000000" d="M170,-197.6729C170,-189.699 170,-180.7545 170,-172.2147"/>
<polygon fill="#000000" stroke="#000000" points="173.5001,-172.0911 170,-162.0911 166.5001,-172.0912 173.5001,-172.0911"/>
</g>
<!-- construct_call_graphX_p3__generate_dot_code&#45;&gt;construct_call_graphX_p3__construct_call_graphX -->
<g id="edge9" class="edge">
<title>construct_call_graphX_p3__generate_dot_code&#45;&gt;construct_call_graphX_p3__construct_call_graphX</title>
<path fill="none" stroke="#000000" d="M170,-458.408C170,-450.434 170,-441.4896 170,-432.9498"/>
<polygon fill="#000000" stroke="#000000" points="173.5001,-432.8262 170,-422.8262 166.5001,-432.8262 173.5001,-432.8262"/>
</g>
<!-- construct_call_graphX_p3__get_atom_name -->
<g id="node6" class="node">
<title>construct_call_graphX_p3__get_atom_name</title>
<ellipse fill="#fecccc" fill-opacity="0.698039" stroke="#000000" cx="170" cy="-49.4558" rx="140.5904" ry="25.4118"/>
<text text-anchor="middle" x="170" y="-52.2558" font-family="Times,serif" font-size="14.00" fill="#000000">get_atom_name</text>
<text text-anchor="middle" x="170" y="-38.2558" font-family="Times,serif" font-size="14.00" fill="#000000">(construct_call_graph_p3.py:46)</text>
</g>
<!-- construct_call_graphX_p3__get_fn_call_data&#45;&gt;construct_call_graphX_p3__get_atom_name -->
<g id="edge3" class="edge">
<title>construct_call_graphX_p3__get_fn_call_data&#45;&gt;construct_call_graphX_p3__get_atom_name</title>
<path fill="none" stroke="#000000" d="M170,-110.7612C170,-102.7873 170,-93.8428 170,-85.303"/>
<polygon fill="#000000" stroke="#000000" points="173.5001,-85.1794 170,-75.1795 166.5001,-85.1795 173.5001,-85.1794"/>
</g>
<!-- construct_call_graphX_p3__process_fn&#45;&gt;construct_call_graphX_p3__find_fn_call -->
<g id="edge6" class="edge">
<title>construct_call_graphX_p3__process_fn&#45;&gt;construct_call_graphX_p3__find_fn_call</title>
<path fill="none" stroke="#000000" d="M170,-284.5846C170,-276.6107 170,-267.6662 170,-259.1264"/>
<polygon fill="#000000" stroke="#000000" points="173.5001,-259.0028 170,-249.0028 166.5001,-259.0029 173.5001,-259.0028"/>
</g>
</g>
</svg>
