<?xml version="1.0" encoding="UTF-8" standalone="no"?>
<!DOCTYPE svg PUBLIC "-//W3C//DTD SVG 1.1//EN"
 "http://www.w3.org/Graphics/SVG/1.1/DTD/svg11.dtd">
<!-- Generated by graphviz version 2.40.1 (20161225.0304)
 -->
<!-- Title: G Pages: 1 -->
<svg width="2158pt" height="313pt"
 viewBox="0.00 0.00 2157.78 312.96" xmlns="http://www.w3.org/2000/svg" xmlns:xlink="http://www.w3.org/1999/xlink">
<g id="graph0" class="graph" transform="scale(1 1) rotate(0) translate(4 308.9624)">
<title>G</title>
<polygon fill="#ffffff" stroke="transparent" points="-4,4 -4,-308.9624 2153.777,-308.9624 2153.777,4 -4,4"/>
<g id="clust1" class="cluster">
<title>cluster_G</title>
<path fill="#808080" fill-opacity="0.094118" stroke="#000000" d="M20,-38.3886C20,-38.3886 2129.777,-38.3886 2129.777,-38.3886 2135.777,-38.3886 2141.777,-44.3886 2141.777,-50.3886 2141.777,-50.3886 2141.777,-279.3886 2141.777,-279.3886 2141.777,-285.3886 2135.777,-291.3886 2129.777,-291.3886 2129.777,-291.3886 20,-291.3886 20,-291.3886 14,-291.3886 8,-285.3886 8,-279.3886 8,-279.3886 8,-50.3886 8,-50.3886 8,-44.3886 14,-38.3886 20,-38.3886"/>
</g>
<g id="clust2" class="cluster">
<title>cluster_construct_call_graphX_p3</title>
<path fill="#808080" fill-opacity="0.094118" stroke="#000000" d="M28,-78.3886C28,-78.3886 1898.7149,-78.3886 1898.7149,-78.3886 1904.7149,-78.3886 1910.7149,-84.3886 1910.7149,-90.3886 1910.7149,-90.3886 1910.7149,-241.3886 1910.7149,-241.3886 1910.7149,-247.3886 1904.7149,-253.3886 1898.7149,-253.3886 1898.7149,-253.3886 28,-253.3886 28,-253.3886 22,-253.3886 16,-247.3886 16,-241.3886 16,-241.3886 16,-90.3886 16,-90.3886 16,-84.3886 22,-78.3886 28,-78.3886"/>
<text text-anchor="middle" x="963.3575" y="-238.1886" font-family="Times,serif" font-size="14.00" fill="#000000">construct_call_graph_p3</text>
</g>
<!-- construct_call_graphX_p3 -->
<g id="node1" class="node">
<title>construct_call_graphX_p3</title>
<ellipse fill="#ffffff" fill-opacity="0.698039" stroke="#000000" cx="2036.246" cy="-145.3886" rx="97.5621" ry="18"/>
<text text-anchor="middle" x="2036.246" y="-141.1886" font-family="Times,serif" font-size="14.00" fill="#000000">construct_call_graph_p3</text>
</g>
<!-- construct_call_graphX_p3__annotate_ast_list -->
<g id="node2" class="node">
<title>construct_call_graphX_p3__annotate_ast_list</title>
<ellipse fill="#fecccc" fill-opacity="0.698039" stroke="#000000" cx="1757.3327" cy="-180.3886" rx="140.5904" ry="25.4118"/>
<text text-anchor="middle" x="1757.3327" y="-183.1886" font-family="Times,serif" font-size="14.00" fill="#000000">annotate_ast_list</text>
<text text-anchor="middle" x="1757.3327" y="-169.1886" font-family="Times,serif" font-size="14.00" fill="#000000">(construct_call_graph_p3.py:34)</text>
</g>
<!-- construct_call_graphX_p3&#45;&gt;construct_call_graphX_p3__annotate_ast_list -->
<g id="edge6" class="edge">
<title>construct_call_graphX_p3&#45;&gt;construct_call_graphX_p3__annotate_ast_list</title>
<path fill="none" stroke="#838b8b" stroke-dasharray="5,2" d="M1955.5727,-155.512C1932.9481,-158.3511 1907.7969,-161.5073 1883.2137,-164.5921"/>
<polygon fill="#838b8b" stroke="#838b8b" points="1882.5795,-161.1442 1873.0931,-165.8621 1883.4511,-168.0897 1882.5795,-161.1442"/>
</g>
<!-- construct_call_graphX_p3__construct_call_graphX -->
<g id="node3" class="node">
<title>construct_call_graphX_p3__construct_call_graphX</title>
<ellipse fill="#fecccc" fill-opacity="0.698039" stroke="#000000" cx="1435.1554" cy="-111.3886" rx="140.5904" ry="25.4118"/>
<text text-anchor="middle" x="1435.1554" y="-114.1886" font-family="Times,serif" font-size="14.00" fill="#000000">construct_call_graph</text>
<text text-anchor="middle" x="1435.1554" y="-100.1886" font-family="Times,serif" font-size="14.00" fill="#000000">(construct_call_graph_p3.py:94)</text>
</g>
<!-- construct_call_graphX_p3&#45;&gt;construct_call_graphX_p3__construct_call_graphX -->
<g id="edge7" class="edge">
<title>construct_call_graphX_p3&#45;&gt;construct_call_graphX_p3__construct_call_graphX</title>
<path fill="none" stroke="#838b8b" stroke-dasharray="5,2" d="M2018.2316,-163.3182C1995.4629,-184.5856 1953.9914,-218.858 1910.7149,-232.3886 1847.3478,-252.2006 1666.7872,-269.8163 1611.9504,-232.3886 1575.6845,-207.6361 1609.5197,-168.6906 1575.9504,-140.3886 1571.4278,-136.5756 1566.5356,-133.22 1561.3811,-130.27"/>
<polygon fill="#838b8b" stroke="#838b8b" points="1562.9698,-127.1513 1552.4777,-125.6788 1559.7615,-133.3728 1562.9698,-127.1513"/>
</g>
<!-- construct_call_graphX_p3__find_fn_call -->
<g id="node4" class="node">
<title>construct_call_graphX_p3__find_fn_call</title>
<ellipse fill="#fecccc" fill-opacity="0.698039" stroke="#000000" cx="799.9752" cy="-111.3886" rx="140.5904" ry="25.4118"/>
<text text-anchor="middle" x="799.9752" y="-114.1886" font-family="Times,serif" font-size="14.00" fill="#000000">find_fn_call</text>
<text text-anchor="middle" x="799.9752" y="-100.1886" font-family="Times,serif" font-size="14.00" fill="#000000">(construct_call_graph_p3.py:73)</text>
</g>
<!-- construct_call_graphX_p3&#45;&gt;construct_call_graphX_p3__find_fn_call -->
<g id="edge2" class="edge">
<title>construct_call_graphX_p3&#45;&gt;construct_call_graphX_p3__find_fn_call</title>
<path fill="none" stroke="#838b8b" stroke-dasharray="5,2" d="M2019.1438,-127.6184C1996.6815,-105.6955 1954.8811,-69.5853 1910.7149,-55.3886 1544.1222,62.4484 1074.6088,-37.2974 885.0118,-87.1328"/>
<polygon fill="#838b8b" stroke="#838b8b" points="883.8752,-83.8131 875.1056,-89.7584 885.6686,-90.5795 883.8752,-83.8131"/>
</g>
<!-- construct_call_graphX_p3__generate_dot_code -->
<g id="node5" class="node">
<title>construct_call_graphX_p3__generate_dot_code</title>
<ellipse fill="#fecccc" fill-opacity="0.698039" stroke="#000000" cx="1757.3327" cy="-111.3886" rx="145.2646" ry="25.4118"/>
<text text-anchor="middle" x="1757.3327" y="-114.1886" font-family="Times,serif" font-size="14.00" fill="#000000">generate_dot_code</text>
<text text-anchor="middle" x="1757.3327" y="-100.1886" font-family="Times,serif" font-size="14.00" fill="#000000">(construct_call_graph_p3.py:119)</text>
</g>
<!-- construct_call_graphX_p3&#45;&gt;construct_call_graphX_p3__generate_dot_code -->
<g id="edge5" class="edge">
<title>construct_call_graphX_p3&#45;&gt;construct_call_graphX_p3__generate_dot_code</title>
<path fill="none" stroke="#838b8b" stroke-dasharray="5,2" d="M1971.9074,-131.7547C1950.9099,-128.5997 1926.674,-125.3271 1902.2152,-122.3046"/>
<polygon fill="#838b8b" stroke="#838b8b" points="1902.4511,-118.8075 1892.1008,-121.0704 1901.6032,-125.7559 1902.4511,-118.8075"/>
</g>
<!-- construct_call_graphX_p3&#45;&gt;construct_call_graphX_p3__generate_dot_code -->
<g id="edge8" class="edge">
<title>construct_call_graphX_p3&#45;&gt;construct_call_graphX_p3__generate_dot_code</title>
<path fill="none" stroke="#000000" d="M1942.2075,-140.3463C1918.0221,-137.7602 1891.7907,-134.6256 1866.8934,-131.3544"/>
<polygon fill="#000000" stroke="#000000" points="1867.0618,-127.846 1856.6873,-129.9957 1866.1379,-134.7848 1867.0618,-127.846"/>
</g>
<!-- construct_call_graphX_p3__get_atom_name -->
<g id="node6" class="node">
<title>construct_call_graphX_p3__get_atom_name</title>
<ellipse fill="#fecccc" fill-opacity="0.698039" stroke="#000000" cx="164.795" cy="-198.3886" rx="140.5904" ry="25.4118"/>
<text text-anchor="middle" x="164.795" y="-201.1886" font-family="Times,serif" font-size="14.00" fill="#000000">get_atom_name</text>
<text text-anchor="middle" x="164.795" y="-187.1886" font-family="Times,serif" font-size="14.00" fill="#000000">(construct_call_graph_p3.py:49)</text>
</g>
<!-- construct_call_graphX_p3&#45;&gt;construct_call_graphX_p3__get_atom_name -->
<g id="edge1" class="edge">
<title>construct_call_graphX_p3&#45;&gt;construct_call_graphX_p3__get_atom_name</title>
<path fill="none" stroke="#838b8b" stroke-dasharray="5,2" d="M2023.7147,-163.3723C2003.5466,-190.604 1961.0121,-241.3521 1910.7149,-262.3886 1715.5506,-344.0149 1646.702,-282.3886 1435.1554,-282.3886 1435.1554,-282.3886 1435.1554,-282.3886 799.9752,-282.3886 609.6353,-282.3886 389.9594,-244.8584 265.2067,-219.9701"/>
<polygon fill="#838b8b" stroke="#838b8b" points="265.7761,-216.5146 255.2826,-217.9768 264.3976,-223.3775 265.7761,-216.5146"/>
</g>
<!-- construct_call_graphX_p3__get_fn_call_data -->
<g id="node7" class="node">
<title>construct_call_graphX_p3__get_fn_call_data</title>
<ellipse fill="#fecccc" fill-opacity="0.698039" stroke="#000000" cx="482.3851" cy="-198.3886" rx="140.5904" ry="25.4118"/>
<text text-anchor="middle" x="482.3851" y="-201.1886" font-family="Times,serif" font-size="14.00" fill="#000000">get_fn_call_data</text>
<text text-anchor="middle" x="482.3851" y="-187.1886" font-family="Times,serif" font-size="14.00" fill="#000000">(construct_call_graph_p3.py:56)</text>
</g>
<!-- construct_call_graphX_p3&#45;&gt;construct_call_graphX_p3__get_fn_call_data -->
<g id="edge4" class="edge">
<title>construct_call_graphX_p3&#45;&gt;construct_call_graphX_p3__get_fn_call_data</title>
<path fill="none" stroke="#838b8b" stroke-dasharray="5,2" d="M2021.0658,-163.5724C1999.467,-187.9097 1957.2856,-230.0218 1910.7149,-247.3886 1811.6467,-284.3323 1540.8878,-262.3886 1435.1554,-262.3886 1435.1554,-262.3886 1435.1554,-262.3886 1117.5653,-262.3886 934.927,-262.3886 724.2303,-235.8702 597.2738,-216.9732"/>
<polygon fill="#838b8b" stroke="#838b8b" points="597.5542,-213.4762 587.1459,-215.4553 596.5167,-220.3989 597.5542,-213.4762"/>
</g>
<!-- construct_call_graphX_p3__process_fn -->
<g id="node8" class="node">
<title>construct_call_graphX_p3__process_fn</title>
<ellipse fill="#fecccc" fill-opacity="0.698039" stroke="#000000" cx="1117.5653" cy="-111.3886" rx="140.5904" ry="25.4118"/>
<text text-anchor="middle" x="1117.5653" y="-114.1886" font-family="Times,serif" font-size="14.00" fill="#000000">process_fn</text>
<text text-anchor="middle" x="1117.5653" y="-100.1886" font-family="Times,serif" font-size="14.00" fill="#000000">(construct_call_graph_p3.py:84)</text>
</g>
<!-- construct_call_graphX_p3&#45;&gt;construct_call_graphX_p3__process_fn -->
<g id="edge3" class="edge">
<title>construct_call_graphX_p3&#45;&gt;construct_call_graphX_p3__process_fn</title>
<path fill="none" stroke="#838b8b" stroke-dasharray="5,2" d="M2012.2899,-127.6689C1988.089,-110.9574 1948.9163,-87.0708 1910.7149,-77.3886 1777.9453,-43.738 1430.7105,-64.3967 1294.3603,-77.3886 1279.199,-78.8332 1249.9607,-84.1051 1219.5599,-90.0809"/>
<polygon fill="#838b8b" stroke="#838b8b" points="1218.7939,-86.6646 1209.6651,-92.0419 1220.1548,-93.531 1218.7939,-86.6646"/>
</g>
<!-- construct_call_graphX_p3__annotate_ast_list&#45;&gt;construct_call_graphX_p3__annotate_ast_list -->
<g id="edge9" class="edge">
<title>construct_call_graphX_p3__annotate_ast_list&#45;&gt;construct_call_graphX_p3__annotate_ast_list</title>
<path fill="none" stroke="#000000" d="M1808.8341,-204.52C1813.0506,-214.9308 1795.8835,-223.8444 1757.3327,-223.8444 1732.0337,-223.8444 1715.9439,-220.0057 1709.0633,-214.4242"/>
<polygon fill="#000000" stroke="#000000" points="1712.261,-212.9408 1705.8312,-204.52 1705.6063,-215.1124 1712.261,-212.9408"/>
</g>
<!-- construct_call_graphX_p3__construct_call_graphX&#45;&gt;construct_call_graphX_p3__construct_call_graphX -->
<g id="edge15" class="edge">
<title>construct_call_graphX_p3__construct_call_graphX&#45;&gt;construct_call_graphX_p3__construct_call_graphX</title>
<path fill="none" stroke="#000000" d="M1493.2337,-134.6368C1499.5695,-145.4216 1480.2101,-154.8444 1435.1554,-154.8444 1404.8843,-154.8444 1386.2124,-150.5908 1379.1398,-144.5284"/>
<polygon fill="#000000" stroke="#000000" points="1382.5448,-143.7117 1377.0771,-134.6368 1375.6922,-145.1407 1382.5448,-143.7117"/>
</g>
<!-- construct_call_graphX_p3__construct_call_graphX&#45;&gt;construct_call_graphX_p3__process_fn -->
<g id="edge14" class="edge">
<title>construct_call_graphX_p3__construct_call_graphX&#45;&gt;construct_call_graphX_p3__process_fn</title>
<path fill="none" stroke="#000000" d="M1294.0062,-111.3886C1285.644,-111.3886 1277.2157,-111.3886 1268.8157,-111.3886"/>
<polygon fill="#000000" stroke="#000000" points="1268.5898,-107.8887 1258.5897,-111.3886 1268.5897,-114.8887 1268.5898,-107.8887"/>
</g>
<!-- construct_call_graphX_p3__find_fn_call&#45;&gt;construct_call_graphX_p3__find_fn_call -->
<g id="edge11" class="edge">
<title>construct_call_graphX_p3__find_fn_call&#45;&gt;construct_call_graphX_p3__find_fn_call</title>
<path fill="none" stroke="#000000" d="M858.0535,-134.6368C864.3893,-145.4216 845.0299,-154.8444 799.9752,-154.8444 769.7041,-154.8444 751.0322,-150.5908 743.9596,-144.5284"/>
<polygon fill="#000000" stroke="#000000" points="747.3647,-143.7117 741.8969,-134.6368 740.5121,-145.1407 747.3647,-143.7117"/>
</g>
<!-- construct_call_graphX_p3__find_fn_call&#45;&gt;construct_call_graphX_p3__get_fn_call_data -->
<g id="edge12" class="edge">
<title>construct_call_graphX_p3__find_fn_call&#45;&gt;construct_call_graphX_p3__get_fn_call_data</title>
<path fill="none" stroke="#000000" d="M702.69,-129.9175C688.0452,-133.1423 673.1683,-136.6664 659.1802,-140.3886 624.8075,-149.5349 587.2964,-161.5432 555.7055,-172.2595"/>
<polygon fill="#000000" stroke="#000000" points="554.4338,-168.9952 546.1015,-175.5391 556.696,-175.6196 554.4338,-168.9952"/>
</g>
<!-- construct_call_graphX_p3__generate_dot_code&#45;&gt;construct_call_graphX_p3__construct_call_graphX -->
<g id="edge16" class="edge">
<title>construct_call_graphX_p3__generate_dot_code&#45;&gt;construct_call_graphX_p3__construct_call_graphX</title>
<path fill="none" stroke="#000000" d="M1611.7965,-111.3886C1603.3792,-111.3886 1594.9047,-111.3886 1586.4661,-111.3886"/>
<polygon fill="#000000" stroke="#000000" points="1586.197,-107.8887 1576.197,-111.3886 1586.1969,-114.8887 1586.197,-107.8887"/>
</g>
<!-- construct_call_graphX_p3__get_fn_call_data&#45;&gt;construct_call_graphX_p3__get_atom_name -->
<g id="edge10" class="edge">
<title>construct_call_graphX_p3__get_fn_call_data&#45;&gt;construct_call_graphX_p3__get_atom_name</title>
<path fill="none" stroke="#000000" d="M341.236,-198.3886C332.8738,-198.3886 324.4455,-198.3886 316.0454,-198.3886"/>
<polygon fill="#000000" stroke="#000000" points="315.8195,-194.8887 305.8195,-198.3886 315.8195,-201.8887 315.8195,-194.8887"/>
</g>
<!-- construct_call_graphX_p3__process_fn&#45;&gt;construct_call_graphX_p3__find_fn_call -->
<g id="edge13" class="edge">
<title>construct_call_graphX_p3__process_fn&#45;&gt;construct_call_graphX_p3__find_fn_call</title>
<path fill="none" stroke="#000000" d="M976.4161,-111.3886C968.0539,-111.3886 959.6257,-111.3886 951.2256,-111.3886"/>
<polygon fill="#000000" stroke="#000000" points="950.9997,-107.8887 940.9997,-111.3886 950.9996,-114.8887 950.9997,-107.8887"/>
</g>
</g>
</svg>
