<?xml version="1.0" encoding="UTF-8" standalone="no"?>
<!DOCTYPE svg PUBLIC "-//W3C//DTD SVG 1.1//EN"
 "http://www.w3.org/Graphics/SVG/1.1/DTD/svg11.dtd">
<!-- Generated by graphviz version 2.40.1 (20161225.0304)
 -->
<!-- Title: G Pages: 1 -->
<svg width="767pt" height="607pt"
 viewBox="0.00 0.00 767.35 607.47" xmlns="http://www.w3.org/2000/svg" xmlns:xlink="http://www.w3.org/1999/xlink">
<g id="graph0" class="graph" transform="scale(1 1) rotate(0) translate(4 603.4701)">
<title>G</title>
<polygon fill="#ffffff" stroke="transparent" points="-4,4 -4,-603.4701 763.3501,-603.4701 763.3501,4 -4,4"/>
<g id="clust1" class="cluster">
<title>cluster_G</title>
<path fill="#808080" fill-opacity="0.094118" stroke="#000000" d="M39.3501,-8C39.3501,-8 739.3501,-8 739.3501,-8 745.3501,-8 751.3501,-14 751.3501,-20 751.3501,-20 751.3501,-579.4701 751.3501,-579.4701 751.3501,-585.4701 745.3501,-591.4701 739.3501,-591.4701 739.3501,-591.4701 39.3501,-591.4701 39.3501,-591.4701 33.3501,-591.4701 27.3501,-585.4701 27.3501,-579.4701 27.3501,-579.4701 27.3501,-20 27.3501,-20 27.3501,-14 33.3501,-8 39.3501,-8"/>
</g>
<g id="clust2" class="cluster">
<title>cluster_construct_call_graphX_p3</title>
<path fill="#808080" fill-opacity="0.094118" stroke="#000000" d="M79.3501,-16C79.3501,-16 679.3501,-16 679.3501,-16 685.3501,-16 691.3501,-22 691.3501,-28 691.3501,-28 691.3501,-527.4701 691.3501,-527.4701 691.3501,-533.4701 685.3501,-539.4701 679.3501,-539.4701 679.3501,-539.4701 79.3501,-539.4701 79.3501,-539.4701 73.3501,-539.4701 67.3501,-533.4701 67.3501,-527.4701 67.3501,-527.4701 67.3501,-28 67.3501,-28 67.3501,-22 73.3501,-16 79.3501,-16"/>
<text text-anchor="middle" x="379.3501" y="-524.2701" font-family="Times,serif" font-size="14.00" fill="#000000">construct_call_graph_p3</text>
</g>
<!-- construct_call_graphX_p3 -->
<g id="node1" class="node">
<title>construct_call_graphX_p3</title>
<ellipse fill="#ffffff" fill-opacity="0.698039" stroke="#000000" cx="372.3501" cy="-565.4701" rx="97.5621" ry="18"/>
<text text-anchor="middle" x="372.3501" y="-561.2701" font-family="Times,serif" font-size="14.00" fill="#000000">construct_call_graph_p3</text>
</g>
<!-- construct_call_graphX_p3__annotate_ast_list -->
<g id="node2" class="node">
<title>construct_call_graphX_p3__annotate_ast_list</title>
<ellipse fill="#fecccc" fill-opacity="0.698039" stroke="#000000" cx="524.3501" cy="-484.0143" rx="140.5904" ry="25.4118"/>
<text text-anchor="middle" x="524.3501" y="-486.8143" font-family="Times,serif" font-size="14.00" fill="#000000">annotate_ast_list</text>
<text text-anchor="middle" x="524.3501" y="-472.8143" font-family="Times,serif" font-size="14.00" fill="#000000">(construct_call_graph_p3.py:34)</text>
</g>
<!-- construct_call_graphX_p3&#45;&gt;construct_call_graphX_p3__annotate_ast_list -->
<g id="edge4" class="edge">
<title>construct_call_graphX_p3&#45;&gt;construct_call_graphX_p3__annotate_ast_list</title>
<path fill="none" stroke="#838b8b" stroke-dasharray="5,2" d="M404.2142,-548.3943C423.3422,-538.1438 448.1782,-524.8343 470.3002,-512.9793"/>
<polygon fill="#838b8b" stroke="#838b8b" points="472.1064,-515.9823 479.2673,-508.1738 468.8,-509.8124 472.1064,-515.9823"/>
</g>
<!-- construct_call_graphX_p3__construct_call_graphX -->
<g id="node3" class="node">
<title>construct_call_graphX_p3__construct_call_graphX</title>
<ellipse fill="#fecccc" fill-opacity="0.698039" stroke="#000000" cx="220.3501" cy="-397.1026" rx="140.5904" ry="25.4118"/>
<text text-anchor="middle" x="220.3501" y="-399.9026" font-family="Times,serif" font-size="14.00" fill="#000000">construct_call_graph</text>
<text text-anchor="middle" x="220.3501" y="-385.9026" font-family="Times,serif" font-size="14.00" fill="#000000">(construct_call_graph_p3.py:94)</text>
</g>
<!-- construct_call_graphX_p3&#45;&gt;construct_call_graphX_p3__construct_call_graphX -->
<g id="edge7" class="edge">
<title>construct_call_graphX_p3&#45;&gt;construct_call_graphX_p3__construct_call_graphX</title>
<path fill="none" stroke="#838b8b" stroke-dasharray="5,2" d="M467.0046,-560.8844C558.5867,-555.9757 684.6989,-547.7682 692.3501,-539.4701 716.7268,-513.0325 716.3465,-485.3417 692.3501,-458.5584 643.5669,-404.1099 437.7229,-432.8842 365.3501,-422.5584 353.6873,-420.8945 341.5235,-419.0044 329.4173,-417.0237"/>
<polygon fill="#838b8b" stroke="#838b8b" points="329.7118,-413.5248 319.2739,-415.3415 328.5665,-420.4305 329.7118,-413.5248"/>
</g>
<!-- construct_call_graphX_p3__find_fn_call -->
<g id="node4" class="node">
<title>construct_call_graphX_p3__find_fn_call</title>
<ellipse fill="#fecccc" fill-opacity="0.698039" stroke="#000000" cx="218.3501" cy="-223.2792" rx="140.5904" ry="25.4118"/>
<text text-anchor="middle" x="218.3501" y="-226.0792" font-family="Times,serif" font-size="14.00" fill="#000000">find_fn_call</text>
<text text-anchor="middle" x="218.3501" y="-212.0792" font-family="Times,serif" font-size="14.00" fill="#000000">(construct_call_graph_p3.py:73)</text>
</g>
<!-- construct_call_graphX_p3&#45;&gt;construct_call_graphX_p3__find_fn_call -->
<g id="edge5" class="edge">
<title>construct_call_graphX_p3&#45;&gt;construct_call_graphX_p3__find_fn_call</title>
<path fill="none" stroke="#838b8b" stroke-dasharray="5,2" d="M277.5079,-561.0019C184.3953,-556.1425 55.1612,-547.9312 47.3501,-539.4701 -29.7076,-456.0016 -4.2303,-372.1248 68.3501,-284.7351 82.0874,-268.1948 100.9851,-256.0534 120.7395,-247.1585"/>
<polygon fill="#838b8b" stroke="#838b8b" points="122.3237,-250.2888 130.1724,-243.1721 119.5987,-243.8409 122.3237,-250.2888"/>
</g>
<!-- construct_call_graphX_p3__generate_dot_code -->
<g id="node5" class="node">
<title>construct_call_graphX_p3__generate_dot_code</title>
<ellipse fill="#fecccc" fill-opacity="0.698039" stroke="#000000" cx="220.3501" cy="-484.0143" rx="145.2646" ry="25.4118"/>
<text text-anchor="middle" x="220.3501" y="-486.8143" font-family="Times,serif" font-size="14.00" fill="#000000">generate_dot_code</text>
<text text-anchor="middle" x="220.3501" y="-472.8143" font-family="Times,serif" font-size="14.00" fill="#000000">(construct_call_graph_p3.py:119)</text>
</g>
<!-- construct_call_graphX_p3&#45;&gt;construct_call_graphX_p3__generate_dot_code -->
<g id="edge3" class="edge">
<title>construct_call_graphX_p3&#45;&gt;construct_call_graphX_p3__generate_dot_code</title>
<path fill="none" stroke="#838b8b" stroke-dasharray="5,2" d="M335.653,-548.7898C315.5946,-538.6488 290.5727,-525.4089 268.9355,-513.5438"/>
<polygon fill="#838b8b" stroke="#838b8b" points="270.3406,-510.3217 259.8939,-508.556 266.9593,-516.451 270.3406,-510.3217"/>
</g>
<!-- construct_call_graphX_p3&#45;&gt;construct_call_graphX_p3__generate_dot_code -->
<g id="edge8" class="edge">
<title>construct_call_graphX_p3&#45;&gt;construct_call_graphX_p3__generate_dot_code</title>
<path fill="none" stroke="#000000" d="M345.3996,-547.9958C327.3221,-537.7243 302.8921,-524.4852 280.3927,-512.7174"/>
<polygon fill="#000000" stroke="#000000" points="281.7113,-509.4582 271.2246,-507.9488 278.4812,-515.6684 281.7113,-509.4582"/>
</g>
<!-- construct_call_graphX_p3__get_atom_name -->
<g id="node6" class="node">
<title>construct_call_graphX_p3__get_atom_name</title>
<ellipse fill="#fecccc" fill-opacity="0.698039" stroke="#000000" cx="542.3501" cy="-49.4558" rx="140.5904" ry="25.4118"/>
<text text-anchor="middle" x="542.3501" y="-52.2558" font-family="Times,serif" font-size="14.00" fill="#000000">get_atom_name</text>
<text text-anchor="middle" x="542.3501" y="-38.2558" font-family="Times,serif" font-size="14.00" fill="#000000">(construct_call_graph_p3.py:49)</text>
</g>
<!-- construct_call_graphX_p3&#45;&gt;construct_call_graphX_p3__get_atom_name -->
<g id="edge6" class="edge">
<title>construct_call_graphX_p3&#45;&gt;construct_call_graphX_p3__get_atom_name</title>
<path fill="none" stroke="#838b8b" stroke-dasharray="5,2" d="M467.6644,-561.3576C568.4046,-556.5687 714.0974,-548.1947 723.3501,-539.4701 769.7945,-495.6765 742.3501,-460.9381 742.3501,-397.1026 742.3501,-397.1026 742.3501,-397.1026 742.3501,-223.2792 742.3501,-168.6171 731.5739,-148.9831 692.3501,-110.9117 675.9903,-95.0326 654.9635,-83.0492 633.8616,-74.086"/>
<polygon fill="#838b8b" stroke="#838b8b" points="635.0863,-70.8059 624.5035,-70.3024 632.4625,-77.2956 635.0863,-70.8059"/>
</g>
<!-- construct_call_graphX_p3__get_fn_call_data -->
<g id="node7" class="node">
<title>construct_call_graphX_p3__get_fn_call_data</title>
<ellipse fill="#fecccc" fill-opacity="0.698039" stroke="#000000" cx="542.3501" cy="-136.3675" rx="140.5904" ry="25.4118"/>
<text text-anchor="middle" x="542.3501" y="-139.1675" font-family="Times,serif" font-size="14.00" fill="#000000">get_fn_call_data</text>
<text text-anchor="middle" x="542.3501" y="-125.1675" font-family="Times,serif" font-size="14.00" fill="#000000">(construct_call_graph_p3.py:56)</text>
</g>
<!-- construct_call_graphX_p3&#45;&gt;construct_call_graphX_p3__get_fn_call_data -->
<g id="edge1" class="edge">
<title>construct_call_graphX_p3&#45;&gt;construct_call_graphX_p3__get_fn_call_data</title>
<path fill="none" stroke="#838b8b" stroke-dasharray="5,2" d="M469.6753,-564.0961C562.1477,-561.8085 689.542,-555.7125 706.3501,-539.4701 752.1374,-495.2237 722.3501,-460.7754 722.3501,-397.1026 722.3501,-397.1026 722.3501,-397.1026 722.3501,-310.1909 722.3501,-242.8414 656.3368,-193.3164 604.2644,-164.7269"/>
<polygon fill="#838b8b" stroke="#838b8b" points="605.8511,-161.6064 595.3824,-159.9759 602.5494,-167.7788 605.8511,-161.6064"/>
</g>
<!-- construct_call_graphX_p3__process_fn -->
<g id="node8" class="node">
<title>construct_call_graphX_p3__process_fn</title>
<ellipse fill="#fecccc" fill-opacity="0.698039" stroke="#000000" cx="218.3501" cy="-310.1909" rx="140.5904" ry="25.4118"/>
<text text-anchor="middle" x="218.3501" y="-312.9909" font-family="Times,serif" font-size="14.00" fill="#000000">process_fn</text>
<text text-anchor="middle" x="218.3501" y="-298.9909" font-family="Times,serif" font-size="14.00" fill="#000000">(construct_call_graph_p3.py:84)</text>
</g>
<!-- construct_call_graphX_p3&#45;&gt;construct_call_graphX_p3__process_fn -->
<g id="edge2" class="edge">
<title>construct_call_graphX_p3&#45;&gt;construct_call_graphX_p3__process_fn</title>
<path fill="none" stroke="#838b8b" stroke-dasharray="5,2" d="M275.1918,-563.6774C190.9693,-561.0881 80.4171,-554.783 66.3501,-539.4701 41.113,-511.9978 48.9304,-402.1891 70.3501,-371.6468 82.0877,-354.91 99.2796,-342.7181 117.828,-333.8409"/>
<polygon fill="#838b8b" stroke="#838b8b" points="119.3143,-337.0104 127.0245,-329.7438 116.4657,-330.6162 119.3143,-337.0104"/>
</g>
<!-- construct_call_graphX_p3__annotate_ast_list&#45;&gt;construct_call_graphX_p3__annotate_ast_list -->
<g id="edge9" class="edge">
<title>construct_call_graphX_p3__annotate_ast_list&#45;&gt;construct_call_graphX_p3__annotate_ast_list</title>
<path fill="none" stroke="#000000" d="M639.9679,-498.5712C664.9951,-497.1478 683.1451,-492.2955 683.1451,-484.0143 683.1451,-476.8976 669.7408,-472.3133 650.0869,-470.2613"/>
<polygon fill="#000000" stroke="#000000" points="650.2137,-466.7604 639.9679,-469.4574 649.6592,-473.7384 650.2137,-466.7604"/>
</g>
<!-- construct_call_graphX_p3__construct_call_graphX&#45;&gt;construct_call_graphX_p3__construct_call_graphX -->
<g id="edge15" class="edge">
<title>construct_call_graphX_p3__construct_call_graphX&#45;&gt;construct_call_graphX_p3__construct_call_graphX</title>
<path fill="none" stroke="#000000" d="M330.1887,-413.0347C358.1521,-411.9875 379.1451,-406.6768 379.1451,-397.1026 379.1451,-388.7252 363.0723,-383.612 340.3208,-381.763"/>
<polygon fill="#000000" stroke="#000000" points="340.376,-378.2604 330.1887,-381.1705 339.9672,-385.2484 340.376,-378.2604"/>
</g>
<!-- construct_call_graphX_p3__construct_call_graphX&#45;&gt;construct_call_graphX_p3__process_fn -->
<g id="edge14" class="edge">
<title>construct_call_graphX_p3__construct_call_graphX&#45;&gt;construct_call_graphX_p3__process_fn</title>
<path fill="none" stroke="#000000" d="M219.7608,-371.4963C219.5773,-363.5224 219.3715,-354.5779 219.175,-346.0381"/>
<polygon fill="#000000" stroke="#000000" points="222.6712,-345.8313 218.942,-335.9145 215.6731,-345.9924 222.6712,-345.8313"/>
</g>
<!-- construct_call_graphX_p3__find_fn_call&#45;&gt;construct_call_graphX_p3__find_fn_call -->
<g id="edge12" class="edge">
<title>construct_call_graphX_p3__find_fn_call&#45;&gt;construct_call_graphX_p3__find_fn_call</title>
<path fill="none" stroke="#000000" d="M328.1887,-239.2113C356.1521,-238.1641 377.1451,-232.8534 377.1451,-223.2792 377.1451,-214.9018 361.0723,-209.7886 338.3208,-207.9397"/>
<polygon fill="#000000" stroke="#000000" points="338.376,-204.437 328.1887,-207.3471 337.9672,-211.4251 338.376,-204.437"/>
</g>
<!-- construct_call_graphX_p3__find_fn_call&#45;&gt;construct_call_graphX_p3__get_fn_call_data -->
<g id="edge11" class="edge">
<title>construct_call_graphX_p3__find_fn_call&#45;&gt;construct_call_graphX_p3__get_fn_call_data</title>
<path fill="none" stroke="#000000" d="M297.1951,-202.1294C344.4226,-189.4608 404.5862,-173.3221 453.4928,-160.2031"/>
<polygon fill="#000000" stroke="#000000" points="454.681,-163.5082 463.4327,-157.5368 452.8673,-156.7472 454.681,-163.5082"/>
</g>
<!-- construct_call_graphX_p3__generate_dot_code&#45;&gt;construct_call_graphX_p3__construct_call_graphX -->
<g id="edge16" class="edge">
<title>construct_call_graphX_p3__generate_dot_code&#45;&gt;construct_call_graphX_p3__construct_call_graphX</title>
<path fill="none" stroke="#000000" d="M220.3501,-458.408C220.3501,-450.434 220.3501,-441.4896 220.3501,-432.9498"/>
<polygon fill="#000000" stroke="#000000" points="223.8502,-432.8262 220.3501,-422.8262 216.8502,-432.8262 223.8502,-432.8262"/>
</g>
<!-- construct_call_graphX_p3__get_fn_call_data&#45;&gt;construct_call_graphX_p3__get_atom_name -->
<g id="edge10" class="edge">
<title>construct_call_graphX_p3__get_fn_call_data&#45;&gt;construct_call_graphX_p3__get_atom_name</title>
<path fill="none" stroke="#000000" d="M542.3501,-110.7612C542.3501,-102.7873 542.3501,-93.8428 542.3501,-85.303"/>
<polygon fill="#000000" stroke="#000000" points="545.8502,-85.1794 542.3501,-75.1795 538.8502,-85.1795 545.8502,-85.1794"/>
</g>
<!-- construct_call_graphX_p3__process_fn&#45;&gt;construct_call_graphX_p3__find_fn_call -->
<g id="edge13" class="edge">
<title>construct_call_graphX_p3__process_fn&#45;&gt;construct_call_graphX_p3__find_fn_call</title>
<path fill="none" stroke="#000000" d="M218.3501,-284.5846C218.3501,-276.6107 218.3501,-267.6662 218.3501,-259.1264"/>
<polygon fill="#000000" stroke="#000000" points="221.8502,-259.0028 218.3501,-249.0028 214.8502,-259.0029 221.8502,-259.0028"/>
</g>
</g>
</svg>
